<svg id="visual" viewBox="0 0 960 540" width="960" height="540" xmlns="http://www.w3.org/2000/svg" xmlns:xlink="http://www.w3.org/1999/xlink" version="1.1"><rect x="0" y="0" width="960" height="540" fill="#ffffff"></rect><path d="M0 394L137 327L274 393L411 372L549 375L686 362L823 327L960 315L960 541L823 541L686 541L549 541L411 541L274 541L137 541L0 541Z" fill="#f5d80a"></path><path d="M0 431L137 382L274 390L411 382L549 374L686 426L823 432L960 381L960 541L823 541L686 541L549 541L411 541L274 541L137 541L0 541Z" fill="#e5a500"></path><path d="M0 414L137 436L274 427L411 399L549 426L686 449L823 441L960 423L960 541L823 541L686 541L549 541L411 541L274 541L137 541L0 541Z" fill="#cb7500"></path><path d="M0 462L137 437L274 450L411 467L549 437L686 444L823 471L960 452L960 541L823 541L686 541L549 541L411 541L274 541L137 541L0 541Z" fill="#ab4700"></path><path d="M0 500L137 510L274 477L411 510L549 474L686 501L823 490L960 497L960 541L823 541L686 541L549 541L411 541L274 541L137 541L0 541Z" fill="#871400"></path></svg>