<svg id="visual" viewBox="0 0 900 600" width="900" height="600" xmlns="http://www.w3.org/2000/svg" xmlns:xlink="http://www.w3.org/1999/xlink" version="1.1"><path d="M0 25L13.7 29C27.3 33 54.7 41 82 43C109.3 45 136.7 41 163.8 39C191 37 218 37 245.2 40C272.3 43 299.7 49 327 54C354.3 59 381.7 63 409 61C436.3 59 463.7 51 491 45C518.3 39 545.7 35 573 37C600.3 39 627.7 47 654.8 50C682 53 709 51 736.2 52C763.3 53 790.7 57 818 54C845.3 51 872.7 41 886.3 36L900 31L900 0L886.3 0C872.7 0 845.3 0 818 0C790.7 0 763.3 0 736.2 0C709 0 682 0 654.8 0C627.7 0 600.3 0 573 0C545.7 0 518.3 0 491 0C463.7 0 436.3 0 409 0C381.7 0 354.3 0 327 0C299.7 0 272.3 0 245.2 0C218 0 191 0 163.8 0C136.7 0 109.3 0 82 0C54.7 0 27.3 0 13.7 0L0 0Z" fill="#ffe675"></path><path d="M0 79L13.7 80C27.3 81 54.7 83 82 81C109.3 79 136.7 73 163.8 75C191 77 218 87 245.2 97C272.3 107 299.7 117 327 124C354.3 131 381.7 135 409 125C436.3 115 463.7 91 491 78C518.3 65 545.7 63 573 71C600.3 79 627.7 97 654.8 101C682 105 709 95 736.2 90C763.3 85 790.7 85 818 86C845.3 87 872.7 89 886.3 90L900 91L900 29L886.3 34C872.7 39 845.3 49 818 52C790.7 55 763.3 51 736.2 50C709 49 682 51 654.8 48C627.7 45 600.3 37 573 35C545.7 33 518.3 37 491 43C463.7 49 436.3 57 409 59C381.7 61 354.3 57 327 52C299.7 47 272.3 41 245.2 38C218 35 191 35 163.8 37C136.7 39 109.3 43 82 41C54.7 39 27.3 31 13.7 27L0 23Z" fill="#ffe25e"></path><path d="M0 163L13.7 161C27.3 159 54.7 155 82 150C109.3 145 136.7 139 163.8 142C191 145 218 157 245.2 168C272.3 179 299.7 189 327 195C354.3 201 381.7 203 409 189C436.3 175 463.7 145 491 129C518.3 113 545.7 111 573 117C600.3 123 627.7 137 654.8 147C682 157 709 163 736.2 161C763.3 159 790.7 149 818 148C845.3 147 872.7 155 886.3 159L900 163L900 89L886.3 88C872.7 87 845.3 85 818 84C790.7 83 763.3 83 736.2 88C709 93 682 103 654.8 99C627.7 95 600.3 77 573 69C545.7 61 518.3 63 491 76C463.7 89 436.3 113 409 123C381.7 133 354.3 129 327 122C299.7 115 272.3 105 245.2 95C218 85 191 75 163.8 73C136.7 71 109.3 77 82 79C54.7 81 27.3 79 13.7 78L0 77Z" fill="#ffde45"></path><path d="M0 367L13.7 350C27.3 333 54.7 299 82 293C109.3 287 136.7 309 163.8 321C191 333 218 335 245.2 350C272.3 365 299.7 393 327 384C354.3 375 381.7 329 409 309C436.3 289 463.7 295 491 299C518.3 303 545.7 305 573 296C600.3 287 627.7 267 654.8 266C682 265 709 283 736.2 278C763.3 273 790.7 245 818 252C845.3 259 872.7 301 886.3 322L900 343L900 161L886.3 157C872.7 153 845.3 145 818 146C790.7 147 763.3 157 736.2 159C709 161 682 155 654.8 145C627.7 135 600.3 121 573 115C545.7 109 518.3 111 491 127C463.7 143 436.3 173 409 187C381.7 201 354.3 199 327 193C299.7 187 272.3 177 245.2 166C218 155 191 143 163.8 140C136.7 137 109.3 143 82 148C54.7 153 27.3 157 13.7 159L0 161Z" fill="#ffda23"></path><path d="M0 463L13.7 443C27.3 423 54.7 383 82 369C109.3 355 136.7 367 163.8 383C191 399 218 419 245.2 435C272.3 451 299.7 463 327 451C354.3 439 381.7 403 409 392C436.3 381 463.7 395 491 393C518.3 391 545.7 373 573 354C600.3 335 627.7 315 654.8 314C682 313 709 331 736.2 330C763.3 329 790.7 309 818 318C845.3 327 872.7 365 886.3 384L900 403L900 341L886.3 320C872.7 299 845.3 257 818 250C790.7 243 763.3 271 736.2 276C709 281 682 263 654.8 264C627.7 265 600.3 285 573 294C545.7 303 518.3 301 491 297C463.7 293 436.3 287 409 307C381.7 327 354.3 373 327 382C299.7 391 272.3 363 245.2 348C218 333 191 331 163.8 319C136.7 307 109.3 285 82 291C54.7 297 27.3 331 13.7 348L0 365Z" fill="#e9c71e"></path><path d="M0 553L13.7 544C27.3 535 54.7 517 82 502C109.3 487 136.7 475 163.8 476C191 477 218 491 245.2 507C272.3 523 299.7 541 327 547C354.3 553 381.7 547 409 541C436.3 535 463.7 529 491 524C518.3 519 545.7 515 573 504C600.3 493 627.7 475 654.8 471C682 467 709 477 736.2 486C763.3 495 790.7 503 818 512C845.3 521 872.7 531 886.3 536L900 541L900 401L886.3 382C872.7 363 845.3 325 818 316C790.7 307 763.3 327 736.2 328C709 329 682 311 654.8 312C627.7 313 600.3 333 573 352C545.7 371 518.3 389 491 391C463.7 393 436.3 379 409 390C381.7 401 354.3 437 327 449C299.7 461 272.3 449 245.2 433C218 417 191 397 163.8 381C136.7 365 109.3 353 82 367C54.7 381 27.3 421 13.7 441L0 461Z" fill="#d3b41a"></path><path d="M0 601L13.7 601C27.3 601 54.7 601 82 601C109.3 601 136.7 601 163.8 601C191 601 218 601 245.2 601C272.3 601 299.7 601 327 601C354.3 601 381.7 601 409 601C436.3 601 463.7 601 491 601C518.3 601 545.7 601 573 601C600.3 601 627.7 601 654.8 601C682 601 709 601 736.2 601C763.3 601 790.7 601 818 601C845.3 601 872.7 601 886.3 601L900 601L900 539L886.3 534C872.7 529 845.3 519 818 510C790.7 501 763.3 493 736.2 484C709 475 682 465 654.8 469C627.7 473 600.3 491 573 502C545.7 513 518.3 517 491 522C463.7 527 436.3 533 409 539C381.7 545 354.3 551 327 545C299.7 539 272.3 521 245.2 505C218 489 191 475 163.8 474C136.7 473 109.3 485 82 500C54.7 515 27.3 533 13.7 542L0 551Z" fill="#bea215"></path></svg>